<svg xmlns="http://www.w3.org/2000/svg" xmlns:xlink="http://www.w3.org/1999/xlink" width="500" zoomAndPan="magnify" viewBox="0 0 375 374.999991" height="500" preserveAspectRatio="xMidYMid meet" version="1.0"><defs><g/><clipPath id="db19490cb8"><path d="M 91.503906 191 L 190 191 L 190 224 L 91.503906 224 Z M 91.503906 191 " clip-rule="nonzero"/></clipPath><clipPath id="c5c4690942"><path d="M 189 191 L 286.503906 191 L 286.503906 224 L 189 224 Z M 189 191 " clip-rule="nonzero"/></clipPath><clipPath id="1f825f8eea"><path d="M 134 74.3125 L 245 74.3125 L 245 202 L 134 202 Z M 134 74.3125 " clip-rule="nonzero"/></clipPath><clipPath id="89d6aeb71c"><path d="M 182 245.644531 L 196 245.644531 L 196 259.144531 L 182 259.144531 Z M 182 245.644531 " clip-rule="nonzero"/></clipPath><clipPath id="03575864b7"><path d="M 114.140625 62.3125 L 264.140625 62.3125 L 264.140625 171.0625 L 114.140625 171.0625 Z M 114.140625 62.3125 " clip-rule="nonzero"/></clipPath><clipPath id="1dec9c1dfa"><path d="M 165.867188 63.8125 L 212.367188 63.8125 L 212.367188 101 L 165.867188 101 Z M 165.867188 63.8125 " clip-rule="nonzero"/></clipPath><clipPath id="7bc235e489"><path d="M 144.351562 197 L 188 197 L 188 209.769531 L 144.351562 209.769531 Z M 144.351562 197 " clip-rule="nonzero"/></clipPath><clipPath id="55b4d355e0"><path d="M 190 197 L 233.601562 197 L 233.601562 209.769531 L 190 209.769531 Z M 190 197 " clip-rule="nonzero"/></clipPath><clipPath id="8d6b15d3e2"><path d="M 189 186.519531 L 230 186.519531 L 230 209 L 189 209 Z M 189 186.519531 " clip-rule="nonzero"/></clipPath><clipPath id="b7f18caa15"><path d="M 148 186.519531 L 190 186.519531 L 190 209 L 148 209 Z M 148 186.519531 " clip-rule="nonzero"/></clipPath></defs><path fill="#38b6ff" d="M 94.433594 170.210938 L 188.5 222.777344 L 103.820312 187.914062 Z M 94.433594 170.210938 " fill-opacity="1" fill-rule="evenodd"/><path fill="#38b6ff" d="M 283.832031 170.210938 L 189.765625 222.777344 L 274.445312 187.914062 Z M 283.832031 170.210938 " fill-opacity="1" fill-rule="evenodd"/><g clip-path="url(#db19490cb8)"><path fill="#004aad" d="M 91.574219 191.441406 L 189.132812 223.941406 L 101.171875 205.269531 Z M 91.574219 191.441406 " fill-opacity="1" fill-rule="evenodd"/></g><g clip-path="url(#c5c4690942)"><path fill="#004aad" d="M 286.691406 191.441406 L 189.132812 223.941406 L 277.09375 205.269531 Z M 286.691406 191.441406 " fill-opacity="1" fill-rule="evenodd"/></g><path fill="#004aad" d="M 176.386719 203.699219 L 189.132812 212.09375 L 201.878906 203.699219 L 201.628906 143.957031 L 176.636719 143.957031 Z M 176.386719 203.699219 " fill-opacity="1" fill-rule="evenodd"/><path fill="#38b6ff" d="M 189.132812 122.941406 C 185.21875 129.027344 166.632812 131.101562 175.273438 143.320312 L 203.011719 143.320312 C 211.632812 131.101562 193.050781 129.027344 189.132812 122.941406 Z M 189.132812 122.941406 " fill-opacity="1" fill-rule="evenodd"/><path fill="#004aad" d="M 175.15625 143.085938 L 203.109375 143.085938 C 203.289062 143.085938 203.445312 143.148438 203.574219 143.277344 C 203.703125 143.40625 203.765625 143.5625 203.761719 143.746094 L 203.761719 145.703125 C 203.765625 145.886719 203.703125 146.039062 203.574219 146.167969 C 203.445312 146.296875 203.289062 146.363281 203.109375 146.363281 L 175.15625 146.363281 C 174.976562 146.359375 174.824219 146.292969 174.695312 146.164062 C 174.570312 146.039062 174.507812 145.882812 174.503906 145.703125 L 174.503906 143.746094 C 174.507812 143.566406 174.570312 143.410156 174.695312 143.28125 C 174.824219 143.15625 174.976562 143.089844 175.15625 143.085938 Z M 175.15625 143.085938 " fill-opacity="1" fill-rule="evenodd"/><g clip-path="url(#1f825f8eea)"><path fill="#004aad" d="M 150.144531 201.351562 L 150.144531 154.175781 L 149.320312 151.773438 C 136.265625 135.136719 143.5 123.851562 155.117188 114.5625 C 159.550781 111.035156 164.753906 107.640625 169.78125 104.34375 L 169.78125 104.324219 C 177.328125 99.402344 184.527344 94.710938 189.132812 89.476562 C 193.742188 94.710938 200.941406 99.402344 208.484375 104.328125 C 213.476562 107.585938 218.621094 110.957031 223.152344 114.566406 C 234.765625 123.851562 242.023438 135.136719 228.96875 151.773438 L 228.125 154.179688 L 228.125 201.351562 L 235.800781 197.066406 L 235.800781 155.476562 C 251.640625 134.398438 242.480469 120.1875 227.890625 108.515625 C 223.152344 104.714844 217.796875 101.222656 212.628906 97.851562 C 203.703125 92.015625 195.335938 86.546875 192.53125 81.039062 L 189.132812 74.3125 L 185.734375 81.039062 C 182.933594 86.546875 174.582031 92.015625 165.65625 97.851562 L 165.636719 97.832031 C 160.527344 101.167969 155.230469 104.636719 150.375 108.515625 C 135.785156 120.1875 126.628906 134.398438 142.464844 155.476562 L 142.464844 197.066406 Z M 150.144531 201.351562 " fill-opacity="1" fill-rule="evenodd"/></g><path fill="#38b6ff" d="M 189.132812 154.0625 C 189.613281 154.066406 190.074219 154.164062 190.515625 154.347656 C 190.957031 154.535156 191.347656 154.800781 191.6875 155.140625 C 192.023438 155.484375 192.285156 155.875 192.464844 156.320312 C 192.648438 156.761719 192.742188 157.226562 192.742188 157.707031 L 192.742188 175.15625 C 192.742188 175.636719 192.648438 176.097656 192.464844 176.539062 C 192.28125 176.980469 192.023438 177.371094 191.683594 177.710938 C 191.347656 178.050781 190.957031 178.3125 190.515625 178.5 C 190.074219 178.683594 189.613281 178.777344 189.132812 178.78125 C 188.65625 178.777344 188.195312 178.683594 187.753906 178.5 C 187.3125 178.3125 186.921875 178.050781 186.582031 177.710938 C 186.246094 177.371094 185.984375 176.980469 185.800781 176.539062 C 185.617188 176.097656 185.527344 175.636719 185.527344 175.15625 L 185.527344 157.703125 C 185.527344 157.222656 185.617188 156.761719 185.800781 156.320312 C 185.984375 155.875 186.242188 155.484375 186.582031 155.140625 C 186.917969 154.800781 187.308594 154.535156 187.75 154.347656 C 188.191406 154.164062 188.652344 154.066406 189.132812 154.0625 Z M 189.132812 154.0625 " fill-opacity="1" fill-rule="evenodd"/><g fill="#004aad" fill-opacity="1"><g transform="translate(132.095262, 243.043856)"><g><path d="M 6.515625 4.40625 C 5.296875 4.40625 4.238281 4.21875 3.34375 3.84375 C 2.445312 3.46875 1.75 2.914062 1.25 2.1875 C 0.75 1.46875 0.5 0.5625 0.5 -0.53125 C 0.5 -0.957031 0.554688 -1.503906 0.671875 -2.171875 C 0.796875 -2.847656 1.066406 -3.648438 1.484375 -4.578125 L 3.8125 -3.765625 C 3.601562 -3.171875 3.441406 -2.660156 3.328125 -2.234375 C 3.210938 -1.804688 3.15625 -1.390625 3.15625 -0.984375 C 3.15625 -0.484375 3.269531 -0.03125 3.5 0.375 C 3.726562 0.789062 4.09375 1.125 4.59375 1.375 C 5.101562 1.625 5.769531 1.75 6.59375 1.75 C 7.601562 1.75 8.394531 1.601562 8.96875 1.3125 C 9.539062 1.019531 9.9375 0.625 10.15625 0.125 C 10.382812 -0.363281 10.5 -0.910156 10.5 -1.515625 C 10.5 -2.035156 10.40625 -2.660156 10.21875 -3.390625 C 10.039062 -4.128906 9.804688 -4.941406 9.515625 -5.828125 L 12.171875 -6.515625 C 12.347656 -5.785156 12.488281 -5.21875 12.59375 -4.8125 C 12.707031 -4.40625 12.796875 -4.097656 12.859375 -3.890625 C 13.046875 -3.328125 13.296875 -2.957031 13.609375 -2.78125 C 13.929688 -2.613281 14.3125 -2.535156 14.75 -2.546875 C 14.988281 -2.546875 15.207031 -2.582031 15.40625 -2.65625 C 15.613281 -2.738281 15.800781 -2.898438 15.96875 -3.140625 C 16.132812 -3.390625 16.285156 -3.773438 16.421875 -4.296875 C 16.566406 -4.816406 16.695312 -5.53125 16.8125 -6.4375 L 19.328125 -6.046875 C 19.242188 -5.597656 19.164062 -5.125 19.09375 -4.625 C 19.019531 -4.132812 18.984375 -3.757812 18.984375 -3.5 C 18.984375 -3.238281 19.097656 -3.015625 19.328125 -2.828125 C 19.566406 -2.648438 20.035156 -2.5625 20.734375 -2.5625 C 21.253906 -2.5625 21.664062 -2.644531 21.96875 -2.8125 C 22.269531 -2.988281 22.421875 -3.351562 22.421875 -3.90625 C 22.421875 -4.394531 22.3125 -5.019531 22.09375 -5.78125 C 21.882812 -6.539062 21.632812 -7.335938 21.34375 -8.171875 L 24.015625 -8.96875 C 24.210938 -8.425781 24.390625 -7.847656 24.546875 -7.234375 C 24.710938 -6.617188 24.84375 -6.019531 24.9375 -5.4375 C 25.03125 -4.851562 25.078125 -4.351562 25.078125 -3.9375 C 25.078125 -2.582031 24.691406 -1.570312 23.921875 -0.90625 C 23.148438 -0.238281 22.101562 0.09375 20.78125 0.09375 C 20.070312 0.09375 19.453125 -0.0195312 18.921875 -0.25 C 18.398438 -0.488281 18.023438 -0.820312 17.796875 -1.25 C 17.472656 -0.6875 17.066406 -0.320312 16.578125 -0.15625 C 16.085938 0.0078125 15.597656 0.09375 15.109375 0.09375 C 14.703125 0.09375 14.3125 0.046875 13.9375 -0.046875 C 13.570312 -0.148438 13.257812 -0.316406 13 -0.546875 C 12.832031 1.023438 12.175781 2.242188 11.03125 3.109375 C 9.882812 3.972656 8.378906 4.40625 6.515625 4.40625 Z M 6.515625 4.40625 "/></g></g></g><g fill="#004aad" fill-opacity="1"><g transform="translate(158.119949, 243.043856)"><g><path d="M 1.078125 4.375 L 0.53125 1.703125 C 1.75 1.554688 2.765625 1.359375 3.578125 1.109375 C 4.398438 0.859375 5.003906 0.441406 5.390625 -0.140625 C 5.210938 -0.0664062 5.019531 -0.015625 4.8125 0.015625 C 4.601562 0.0546875 4.378906 0.078125 4.140625 0.078125 C 3.535156 0.078125 2.988281 -0.0195312 2.5 -0.21875 C 2.007812 -0.414062 1.617188 -0.722656 1.328125 -1.140625 C 1.035156 -1.554688 0.890625 -2.101562 0.890625 -2.78125 C 0.890625 -3.394531 0.988281 -3.992188 1.1875 -4.578125 C 1.394531 -5.160156 1.675781 -5.679688 2.03125 -6.140625 C 2.394531 -6.609375 2.816406 -6.976562 3.296875 -7.25 C 3.773438 -7.519531 4.28125 -7.65625 4.8125 -7.65625 C 5.425781 -7.65625 5.972656 -7.492188 6.453125 -7.171875 C 6.941406 -6.859375 7.34375 -6.445312 7.65625 -5.9375 C 7.96875 -5.425781 8.207031 -4.867188 8.375 -4.265625 C 8.539062 -3.671875 8.625 -3.101562 8.625 -2.5625 C 8.625 -1.132812 8.316406 0.078125 7.703125 1.078125 C 7.097656 2.078125 6.234375 2.851562 5.109375 3.40625 C 3.984375 3.957031 2.640625 4.28125 1.078125 4.375 Z M 3.515625 -3.3125 C 3.515625 -2.78125 3.914062 -2.515625 4.71875 -2.515625 C 5.132812 -2.515625 5.546875 -2.566406 5.953125 -2.671875 C 5.921875 -3.015625 5.859375 -3.351562 5.765625 -3.6875 C 5.671875 -4.03125 5.535156 -4.304688 5.359375 -4.515625 C 5.179688 -4.734375 4.957031 -4.84375 4.6875 -4.84375 C 4.332031 -4.84375 4.046875 -4.675781 3.828125 -4.34375 C 3.617188 -4.007812 3.515625 -3.664062 3.515625 -3.3125 Z M 3.515625 -3.3125 "/></g></g></g><g fill="#004aad" fill-opacity="1"><g transform="translate(167.580012, 243.043856)"><g><path d="M 0.671875 -0.765625 L 1.59375 -3.171875 C 2.488281 -2.765625 3.367188 -2.5625 4.234375 -2.5625 C 5.578125 -2.5625 6.25 -2.921875 6.25 -3.640625 C 6.25 -3.859375 6.179688 -4.15625 6.046875 -4.53125 C 5.921875 -4.914062 5.6875 -5.414062 5.34375 -6.03125 C 5 -6.644531 4.5 -7.410156 3.84375 -8.328125 L 6.09375 -9.828125 C 7 -8.515625 7.722656 -7.273438 8.265625 -6.109375 C 8.804688 -4.953125 9.078125 -3.972656 9.078125 -3.171875 C 9.078125 -2.191406 8.6875 -1.398438 7.90625 -0.796875 C 7.132812 -0.191406 6.003906 0.109375 4.515625 0.109375 C 4.148438 0.109375 3.734375 0.078125 3.265625 0.015625 C 2.804688 -0.046875 2.347656 -0.140625 1.890625 -0.265625 C 1.441406 -0.390625 1.035156 -0.554688 0.671875 -0.765625 Z M 0.671875 -0.765625 "/></g></g></g><g fill="#004aad" fill-opacity="1"><g transform="translate(177.401011, 243.043856)"><g><path d="M 0.296875 4.390625 L -0.671875 2.03125 C 0.234375 1.71875 1.035156 1.347656 1.734375 0.921875 C 2.429688 0.492188 2.976562 0.00390625 3.375 -0.546875 C 3.769531 -1.097656 3.96875 -1.710938 3.96875 -2.390625 C 3.96875 -2.921875 3.847656 -3.503906 3.609375 -4.140625 C 3.367188 -4.773438 3.078125 -5.421875 2.734375 -6.078125 L 5.21875 -7.28125 C 5.4375 -6.882812 5.632812 -6.460938 5.8125 -6.015625 C 5.988281 -5.566406 6.132812 -5.164062 6.25 -4.8125 C 6.363281 -4.457031 6.441406 -4.210938 6.484375 -4.078125 C 6.660156 -3.472656 6.898438 -3.066406 7.203125 -2.859375 C 7.515625 -2.660156 8.019531 -2.5625 8.71875 -2.5625 C 9.1875 -2.5625 9.523438 -2.4375 9.734375 -2.1875 C 9.953125 -1.945312 10.0625 -1.640625 10.0625 -1.265625 C 10.0625 -0.878906 9.925781 -0.554688 9.65625 -0.296875 C 9.394531 -0.0351562 9.019531 0.09375 8.53125 0.09375 C 7.570312 0.09375 6.835938 -0.164062 6.328125 -0.6875 C 6.109375 0.101562 5.695312 0.828125 5.09375 1.484375 C 4.5 2.148438 3.78125 2.726562 2.9375 3.21875 C 2.101562 3.71875 1.222656 4.109375 0.296875 4.390625 Z M 0.296875 4.390625 "/></g></g></g><g fill="#004aad" fill-opacity="1"><g transform="translate(185.949266, 243.043856)"><g><path d="M 0 0.09375 L 0.1875 -2.546875 C 0.570312 -2.535156 0.929688 -2.535156 1.265625 -2.546875 C 1.597656 -2.566406 1.910156 -2.59375 2.203125 -2.625 C 1.921875 -2.945312 1.6875 -3.3125 1.5 -3.71875 C 1.320312 -4.132812 1.234375 -4.601562 1.234375 -5.125 C 1.234375 -5.914062 1.425781 -6.601562 1.8125 -7.1875 C 2.207031 -7.78125 2.707031 -8.238281 3.3125 -8.5625 C 3.914062 -8.894531 4.535156 -9.0625 5.171875 -9.0625 C 5.929688 -9.0625 6.585938 -8.882812 7.140625 -8.53125 C 7.703125 -8.175781 8.132812 -7.707031 8.4375 -7.125 C 8.75 -6.550781 8.90625 -5.9375 8.90625 -5.28125 C 8.90625 -4.75 8.816406 -4.257812 8.640625 -3.8125 C 8.460938 -3.375 8.226562 -2.984375 7.9375 -2.640625 C 8.320312 -2.617188 8.707031 -2.597656 9.09375 -2.578125 C 9.476562 -2.566406 9.851562 -2.5625 10.21875 -2.5625 C 10.695312 -2.5625 11.039062 -2.4375 11.25 -2.1875 C 11.46875 -1.945312 11.578125 -1.640625 11.578125 -1.265625 C 11.578125 -0.878906 11.441406 -0.554688 11.171875 -0.296875 C 10.898438 -0.0351562 10.519531 0.09375 10.03125 0.09375 C 9.09375 0.09375 8.179688 0.03125 7.296875 -0.09375 C 6.410156 -0.21875 5.640625 -0.398438 4.984375 -0.640625 C 4.515625 -0.441406 3.84375 -0.265625 2.96875 -0.109375 C 2.09375 0.0351562 1.101562 0.101562 0 0.09375 Z M 3.859375 -4.9375 C 3.859375 -4.625 3.945312 -4.328125 4.125 -4.046875 C 4.300781 -3.765625 4.546875 -3.503906 4.859375 -3.265625 C 5.316406 -3.472656 5.664062 -3.726562 5.90625 -4.03125 C 6.15625 -4.332031 6.28125 -4.660156 6.28125 -5.015625 C 6.28125 -5.359375 6.175781 -5.691406 5.96875 -6.015625 C 5.757812 -6.347656 5.472656 -6.515625 5.109375 -6.515625 C 4.753906 -6.515625 4.457031 -6.363281 4.21875 -6.0625 C 3.976562 -5.757812 3.859375 -5.382812 3.859375 -4.9375 Z M 5.1875 -10.84375 C 4.789062 -10.84375 4.457031 -10.972656 4.1875 -11.234375 C 3.914062 -11.503906 3.78125 -11.832031 3.78125 -12.21875 C 3.78125 -12.613281 3.914062 -12.945312 4.1875 -13.21875 C 4.457031 -13.5 4.789062 -13.640625 5.1875 -13.640625 C 5.5625 -13.640625 5.882812 -13.5 6.15625 -13.21875 C 6.425781 -12.945312 6.5625 -12.613281 6.5625 -12.21875 C 6.5625 -11.832031 6.425781 -11.503906 6.15625 -11.234375 C 5.882812 -10.972656 5.5625 -10.84375 5.1875 -10.84375 Z M 5.1875 -10.84375 "/></g></g></g><g fill="#004aad" fill-opacity="1"><g transform="translate(195.998208, 243.043856)"><g><path d="M 0 0.09375 L 0.1875 -2.5625 C 0.769531 -2.5625 1.1875 -2.617188 1.4375 -2.734375 C 1.695312 -2.859375 1.847656 -3.085938 1.890625 -3.421875 C 1.941406 -3.765625 1.957031 -4.257812 1.9375 -4.90625 L 1.59375 -13.90625 L 4.28125 -13.90625 L 4.65625 -4.71875 C 4.675781 -3.976562 4.644531 -3.3125 4.5625 -2.71875 C 4.488281 -2.132812 4.296875 -1.632812 3.984375 -1.21875 C 3.671875 -0.800781 3.191406 -0.476562 2.546875 -0.25 C 1.910156 -0.0195312 1.0625 0.09375 0 0.09375 Z M 0 0.09375 "/></g></g></g><g fill="#004aad" fill-opacity="1"><g transform="translate(201.640053, 243.043856)"><g><path d="M 1.515625 0 L 1.125 -13.90625 L 3.78125 -13.90625 L 4.1875 0 Z M 1.515625 0 "/></g></g></g><g fill="#004aad" fill-opacity="1"><g transform="translate(206.825989, 243.043856)"><g/></g></g><g fill="#004aad" fill-opacity="1"><g transform="translate(211.575023, 243.043856)"><g><path d="M 6.015625 0.09375 C 4.835938 0.09375 3.929688 -0.0234375 3.296875 -0.265625 C 2.660156 -0.503906 2.210938 -0.878906 1.953125 -1.390625 C 1.691406 -1.910156 1.546875 -2.5625 1.515625 -3.34375 L 1.125 -13.90625 L 3.78125 -13.90625 L 4.1875 -4.609375 C 4.207031 -4.035156 4.265625 -3.601562 4.359375 -3.3125 C 4.460938 -3.019531 4.65625 -2.820312 4.9375 -2.71875 C 5.21875 -2.613281 5.644531 -2.5625 6.21875 -2.5625 C 6.6875 -2.5625 7.023438 -2.4375 7.234375 -2.1875 C 7.453125 -1.945312 7.5625 -1.640625 7.5625 -1.265625 C 7.5625 -0.878906 7.425781 -0.554688 7.15625 -0.296875 C 6.894531 -0.0351562 6.515625 0.09375 6.015625 0.09375 Z M 6.015625 0.09375 "/></g></g></g><g fill="#004aad" fill-opacity="1"><g transform="translate(217.615787, 243.043856)"><g><path d="M 0 0.09375 L 0.1875 -2.546875 C 0.570312 -2.535156 0.929688 -2.535156 1.265625 -2.546875 C 1.597656 -2.566406 1.910156 -2.59375 2.203125 -2.625 C 1.921875 -2.945312 1.6875 -3.3125 1.5 -3.71875 C 1.320312 -4.132812 1.234375 -4.601562 1.234375 -5.125 C 1.234375 -5.914062 1.425781 -6.601562 1.8125 -7.1875 C 2.207031 -7.78125 2.707031 -8.238281 3.3125 -8.5625 C 3.914062 -8.894531 4.535156 -9.0625 5.171875 -9.0625 C 5.929688 -9.0625 6.585938 -8.882812 7.140625 -8.53125 C 7.703125 -8.175781 8.132812 -7.707031 8.4375 -7.125 C 8.75 -6.550781 8.90625 -5.9375 8.90625 -5.28125 C 8.90625 -4.75 8.816406 -4.257812 8.640625 -3.8125 C 8.460938 -3.375 8.226562 -2.984375 7.9375 -2.640625 C 8.320312 -2.617188 8.707031 -2.597656 9.09375 -2.578125 C 9.476562 -2.566406 9.851562 -2.5625 10.21875 -2.5625 C 10.695312 -2.5625 11.039062 -2.4375 11.25 -2.1875 C 11.46875 -1.945312 11.578125 -1.640625 11.578125 -1.265625 C 11.578125 -0.878906 11.441406 -0.554688 11.171875 -0.296875 C 10.898438 -0.0351562 10.519531 0.09375 10.03125 0.09375 C 9.09375 0.09375 8.179688 0.03125 7.296875 -0.09375 C 6.410156 -0.21875 5.640625 -0.398438 4.984375 -0.640625 C 4.515625 -0.441406 3.84375 -0.265625 2.96875 -0.109375 C 2.09375 0.0351562 1.101562 0.101562 0 0.09375 Z M 3.859375 -4.9375 C 3.859375 -4.625 3.945312 -4.328125 4.125 -4.046875 C 4.300781 -3.765625 4.546875 -3.503906 4.859375 -3.265625 C 5.316406 -3.472656 5.664062 -3.726562 5.90625 -4.03125 C 6.15625 -4.332031 6.28125 -4.660156 6.28125 -5.015625 C 6.28125 -5.359375 6.175781 -5.691406 5.96875 -6.015625 C 5.757812 -6.347656 5.472656 -6.515625 5.109375 -6.515625 C 4.753906 -6.515625 4.457031 -6.363281 4.21875 -6.0625 C 3.976562 -5.757812 3.859375 -5.382812 3.859375 -4.9375 Z M 5.1875 -10.84375 C 4.789062 -10.84375 4.457031 -10.972656 4.1875 -11.234375 C 3.914062 -11.503906 3.78125 -11.832031 3.78125 -12.21875 C 3.78125 -12.613281 3.914062 -12.945312 4.1875 -13.21875 C 4.457031 -13.5 4.789062 -13.640625 5.1875 -13.640625 C 5.5625 -13.640625 5.882812 -13.5 6.15625 -13.21875 C 6.425781 -12.945312 6.5625 -12.613281 6.5625 -12.21875 C 6.5625 -11.832031 6.425781 -11.503906 6.15625 -11.234375 C 5.882812 -10.972656 5.5625 -10.84375 5.1875 -10.84375 Z M 5.1875 -10.84375 "/></g></g></g><g fill="#004aad" fill-opacity="1"><g transform="translate(227.664729, 243.043856)"><g><path d="M 9.84375 0.34375 C 8.425781 0.34375 7.289062 0.265625 6.4375 0.109375 C 5.59375 -0.0351562 4.9375 -0.238281 4.46875 -0.5 C 4.007812 -0.769531 3.660156 -1.082031 3.421875 -1.4375 C 2.953125 -0.769531 2.421875 -0.347656 1.828125 -0.171875 C 1.234375 0.00390625 0.625 0.09375 0 0.09375 L 0.1875 -2.5625 C 0.707031 -2.5625 1.085938 -2.675781 1.328125 -2.90625 C 1.578125 -3.144531 1.78125 -3.535156 1.9375 -4.078125 C 2.101562 -4.628906 2.304688 -5.375 2.546875 -6.3125 L 4.953125 -5.71875 C 4.691406 -4.695312 4.5625 -4.03125 4.5625 -3.71875 C 4.5625 -3.425781 4.640625 -3.1875 4.796875 -3 C 4.953125 -2.8125 5.285156 -2.660156 5.796875 -2.546875 C 6.285156 -3.304688 6.832031 -4.03125 7.4375 -4.71875 C 8.050781 -5.40625 8.695312 -6.015625 9.375 -6.546875 C 10.0625 -7.085938 10.769531 -7.507812 11.5 -7.8125 C 12.238281 -8.113281 12.988281 -8.265625 13.75 -8.265625 C 15.019531 -8.265625 16.003906 -7.898438 16.703125 -7.171875 C 17.410156 -6.453125 17.765625 -5.523438 17.765625 -4.390625 C 17.765625 -3.460938 17.5 -2.644531 16.96875 -1.9375 C 16.445312 -1.226562 15.609375 -0.671875 14.453125 -0.265625 C 13.296875 0.140625 11.757812 0.34375 9.84375 0.34375 Z M 13.484375 -5.609375 C 12.929688 -5.609375 12.375 -5.445312 11.8125 -5.125 C 11.25 -4.8125 10.703125 -4.398438 10.171875 -3.890625 C 9.648438 -3.390625 9.179688 -2.863281 8.765625 -2.3125 C 8.953125 -2.3125 9.148438 -2.3125 9.359375 -2.3125 C 10.816406 -2.3125 11.960938 -2.378906 12.796875 -2.515625 C 13.640625 -2.660156 14.234375 -2.875 14.578125 -3.15625 C 14.929688 -3.4375 15.109375 -3.785156 15.109375 -4.203125 C 15.109375 -4.554688 14.976562 -4.878906 14.71875 -5.171875 C 14.46875 -5.460938 14.054688 -5.609375 13.484375 -5.609375 Z M 13.484375 -5.609375 "/></g></g></g><path fill="#000000" d="M 179.683594 253.851562 L 179.683594 252.953125 L 126.417969 252.363281 L 179.683594 251.773438 L 179.683594 250.875 L 45.144531 252.363281 Z M 179.683594 253.851562 " fill-opacity="1" fill-rule="nonzero"/><path fill="#000000" d="M 198.355469 250.875 L 198.355469 251.773438 L 251.625 252.363281 L 198.355469 252.953125 L 198.355469 253.851562 L 332.898438 252.363281 Z M 198.355469 250.875 " fill-opacity="1" fill-rule="nonzero"/><g clip-path="url(#89d6aeb71c)"><path fill="#000000" d="M 195.390625 251.765625 C 195.253906 251.5625 195.078125 251.390625 194.875 251.25 C 194.75 251.160156 194.613281 251.082031 194.476562 251.007812 C 194.339844 250.941406 194.199219 250.875 194.050781 250.820312 C 194.074219 250.726562 194.085938 250.640625 194.085938 250.550781 C 194.085938 250.160156 193.859375 249.773438 193.402344 249.4375 C 192.886719 250.667969 191.339844 251.707031 189.246094 252.296875 L 193.644531 247.621094 L 189.078125 252.125 C 189.65625 249.984375 190.664062 248.40625 191.863281 247.875 C 191.539062 247.40625 191.15625 247.175781 190.777344 247.175781 C 190.6875 247.175781 190.605469 247.1875 190.515625 247.210938 C 190.460938 247.0625 190.398438 246.914062 190.332031 246.773438 C 190.207031 246.519531 190.058594 246.277344 189.863281 246.074219 C 189.714844 245.917969 189.535156 245.785156 189.332031 245.703125 C 189.132812 245.632812 188.898438 245.625 188.699219 245.703125 C 188.601562 245.742188 188.515625 245.789062 188.429688 245.84375 C 188.230469 245.984375 188.0625 246.167969 187.925781 246.375 C 187.835938 246.5 187.757812 246.640625 187.6875 246.78125 C 187.625 246.921875 187.558594 247.066406 187.503906 247.21875 C 187.414062 247.195312 187.332031 247.183594 187.242188 247.183594 C 186.863281 247.183594 186.484375 247.414062 186.15625 247.882812 C 187.363281 248.410156 188.378906 250.003906 188.953125 252.15625 L 184.363281 247.625 L 188.757812 252.296875 C 186.679688 251.707031 185.140625 250.671875 184.625 249.445312 C 184.167969 249.777344 183.941406 250.167969 183.941406 250.558594 C 183.941406 250.648438 183.953125 250.734375 183.976562 250.824219 C 183.828125 250.878906 183.683594 250.945312 183.546875 251.011719 C 183.300781 251.140625 183.0625 251.292969 182.867188 251.492188 C 182.710938 251.644531 182.582031 251.828125 182.503906 252.035156 C 182.433594 252.242188 182.425781 252.480469 182.503906 252.6875 C 182.539062 252.78125 182.585938 252.875 182.640625 252.960938 C 182.777344 253.167969 182.953125 253.335938 183.15625 253.476562 C 183.28125 253.566406 183.417969 253.648438 183.554688 253.71875 C 183.691406 253.785156 183.832031 253.851562 183.980469 253.90625 C 183.957031 254 183.945312 254.085938 183.945312 254.175781 C 183.945312 254.566406 184.171875 254.953125 184.628906 255.289062 C 185.144531 254.058594 186.691406 253.027344 188.78125 252.4375 L 184.367188 257.125 L 188.953125 252.601562 C 188.378906 254.746094 187.367188 256.328125 186.160156 256.855469 C 186.488281 257.324219 186.867188 257.558594 187.25 257.558594 C 187.339844 257.558594 187.421875 257.542969 187.511719 257.519531 C 187.5625 257.671875 187.628906 257.816406 187.695312 257.957031 C 187.765625 258.097656 187.84375 258.238281 187.933594 258.367188 C 188.070312 258.566406 188.234375 258.753906 188.4375 258.894531 C 188.519531 258.949219 188.609375 258.996094 188.703125 259.035156 C 188.90625 259.105469 189.136719 259.105469 189.339844 259.035156 C 189.542969 258.960938 189.71875 258.820312 189.867188 258.664062 C 190.058594 258.457031 190.210938 258.214844 190.335938 257.964844 C 190.402344 257.824219 190.46875 257.679688 190.523438 257.527344 C 190.609375 257.550781 190.695312 257.5625 190.78125 257.5625 C 191.164062 257.5625 191.542969 257.332031 191.871094 256.863281 C 190.671875 256.339844 189.667969 254.765625 189.085938 252.632812 L 193.644531 257.132812 L 189.222656 252.429688 C 191.324219 253.019531 192.878906 254.058594 193.398438 255.292969 C 193.855469 254.960938 194.078125 254.570312 194.078125 254.183594 C 194.078125 254.089844 194.066406 254.003906 194.042969 253.914062 C 194.191406 253.859375 194.335938 253.792969 194.472656 253.726562 C 194.722656 253.597656 194.957031 253.445312 195.15625 253.246094 C 195.308594 253.09375 195.441406 252.910156 195.515625 252.703125 C 195.589844 252.496094 195.59375 252.261719 195.515625 252.054688 C 195.480469 251.957031 195.433594 251.863281 195.378906 251.78125 Z M 195.390625 251.765625 " fill-opacity="1" fill-rule="nonzero"/></g><g clip-path="url(#03575864b7)"><path fill="#004aad" d="M 216.355469 108.453125 L 216.597656 102.289062 L 214.433594 100.847656 L 214.195312 94.84375 L 216.4375 94.765625 L 224.039062 94.765625 L 226.28125 94.84375 L 226.042969 100.847656 L 223.878906 102.289062 L 224.121094 108.453125 Z M 161.6875 92.84375 L 154.5625 92.84375 L 155.523438 85.238281 L 157.042969 84.039062 L 158.003906 76.515625 L 159.046875 84.039062 L 160.566406 85.238281 Z M 164.167969 94.765625 L 163.929688 100.847656 L 161.765625 102.289062 L 162.007812 108.453125 L 154.324219 108.453125 L 154.5625 102.289062 L 152.320312 100.847656 L 152.082031 94.84375 L 154.324219 94.765625 Z M 223.71875 92.84375 L 216.597656 92.84375 L 217.558594 85.238281 L 219.15625 84.039062 L 220.117188 76.515625 L 221.078125 84.039062 L 222.597656 85.238281 Z M 214.996094 136.789062 L 214.914062 121.097656 L 212.753906 119.179688 L 212.753906 110.453125 L 216.355469 110.292969 L 224.121094 110.292969 L 227.722656 110.453125 L 227.722656 119.257812 L 225.5625 121.179688 L 225.402344 136.789062 Z M 181.378906 112.695312 C 181.378906 108.371094 184.898438 104.929688 189.140625 104.929688 C 192.023438 104.929688 194.503906 106.453125 195.867188 108.691406 C 194.746094 107.410156 193.144531 106.613281 191.304688 106.613281 C 187.941406 106.613281 185.21875 109.332031 185.21875 112.695312 C 185.21875 116.054688 187.941406 118.777344 191.304688 118.777344 C 193.144531 118.777344 194.746094 117.976562 195.867188 116.695312 C 194.503906 118.9375 192.023438 120.457031 189.140625 120.457031 C 184.820312 120.457031 181.378906 117.015625 181.378906 112.695312 Z M 264.140625 171.285156 C 254.695312 168.40625 245.25 165.523438 235.808594 162.640625 C 244.691406 151.996094 250.054688 138.308594 250.054688 123.421875 C 250.132812 89.722656 222.839844 62.429688 189.140625 62.429688 C 155.445312 62.429688 128.148438 89.722656 128.148438 123.421875 C 128.148438 138.386719 133.511719 152.074219 142.398438 162.640625 C 133.03125 165.523438 123.585938 168.40625 114.140625 171.285156 C 127.027344 169.683594 139.914062 168.085938 152.800781 166.484375 L 152.800781 151.433594 L 149.921875 149.195312 L 149.679688 138.628906 L 166.488281 138.628906 L 166.25 149.195312 L 163.367188 151.433594 L 163.367188 165.121094 L 170.570312 164.242188 C 170.972656 163.363281 171.132812 162.402344 171.050781 161.441406 C 170.8125 159.917969 169.929688 158.558594 168.570312 157.839844 L 172.574219 157.839844 C 168.890625 154.316406 167.371094 149.113281 168.570312 144.152344 C 171.050781 134.546875 182.019531 134.625 189.140625 122.859375 C 196.265625 134.625 207.3125 134.546875 209.710938 144.152344 C 210.992188 149.113281 209.472656 154.316406 205.710938 157.839844 L 209.710938 157.839844 C 208.351562 158.558594 207.472656 159.917969 207.230469 161.441406 C 207.070312 162.402344 207.230469 163.441406 207.710938 164.242188 L 214.914062 165.121094 L 214.914062 151.433594 L 212.035156 149.195312 L 211.792969 138.628906 L 228.601562 138.628906 L 228.363281 149.195312 L 225.480469 151.433594 L 225.480469 166.484375 C 238.128906 167.445312 251.496094 169.683594 264.140625 171.285156 Z M 165.609375 110.453125 L 165.609375 119.257812 L 163.449219 121.179688 L 163.367188 136.867188 L 152.960938 136.867188 L 152.882812 121.179688 L 150.640625 119.257812 L 150.640625 110.453125 L 154.242188 110.292969 L 162.007812 110.292969 Z M 165.609375 110.453125 " fill-opacity="1" fill-rule="evenodd"/></g><g clip-path="url(#1dec9c1dfa)"><path fill="#38b6ff" d="M 166.945312 99.613281 C 166.945312 85.714844 189.140625 76.542969 189.140625 71.472656 C 189.140625 76.683594 211.335938 85.714844 211.335938 99.613281 C 211.335938 99.875 211.332031 100.136719 211.320312 100.398438 C 212.03125 98.167969 212.414062 95.796875 212.414062 93.332031 C 212.414062 78.757812 189.140625 69.285156 189.140625 63.824219 C 189.140625 69.140625 165.867188 78.757812 165.867188 93.332031 C 165.867188 95.796875 166.25 98.167969 166.960938 100.398438 C 166.953125 100.136719 166.945312 99.875 166.945312 99.613281 " fill-opacity="1" fill-rule="nonzero"/></g><path fill="#ffffff" d="M 170.773438 107.207031 C 170.773438 95.707031 189.140625 88.117188 189.140625 83.921875 C 189.140625 88.230469 207.507812 95.707031 207.507812 107.207031 C 207.507812 107.425781 207.503906 107.640625 207.496094 107.855469 C 208.082031 106.011719 208.398438 104.046875 208.398438 102.007812 C 208.398438 89.949219 189.140625 82.113281 189.140625 77.589844 C 189.140625 81.992188 169.882812 89.949219 169.882812 102.007812 C 169.882812 104.046875 170.199219 106.011719 170.785156 107.855469 C 170.78125 107.640625 170.773438 107.425781 170.773438 107.207031 " fill-opacity="1" fill-rule="nonzero"/><g clip-path="url(#7bc235e489)"><path fill="#5271ff" d="M 144.429688 198.28125 L 146.949219 204.933594 C 146.949219 204.933594 173.328125 196.914062 187.40625 209.582031 C 187.40625 209.582031 177.773438 193.90625 144.429688 198.28125 " fill-opacity="1" fill-rule="nonzero"/></g><g clip-path="url(#55b4d355e0)"><path fill="#5271ff" d="M 233.847656 198.28125 L 231.328125 204.933594 C 231.328125 204.933594 204.949219 196.914062 190.871094 209.582031 C 190.871094 209.582031 200.503906 193.90625 233.847656 198.28125 " fill-opacity="1" fill-rule="nonzero"/></g><g clip-path="url(#8d6b15d3e2)"><path fill="#38b6ff" d="M 195.269531 201.472656 L 195.148438 201.039062 C 204.390625 193.757812 220.308594 191.582031 220.308594 191.582031 L 219.238281 186.519531 C 198.621094 192.214844 192.414062 200.488281 190.550781 204.800781 C 190.417969 205.105469 190.308594 205.386719 190.21875 205.648438 L 189.152344 208.371094 C 189.144531 208.386719 189.140625 208.398438 189.140625 208.398438 L 190.5625 206.867188 C 202.230469 195.582031 228.921875 196.792969 228.921875 196.792969 L 229.609375 190.953125 C 211.054688 192.523438 200.808594 197.308594 195.269531 201.472656 " fill-opacity="1" fill-rule="nonzero"/></g><g clip-path="url(#b7f18caa15)"><path fill="#38b6ff" d="M 183.007812 201.472656 L 183.132812 201.039062 C 173.890625 193.757812 157.972656 191.582031 157.972656 191.582031 L 159.039062 186.519531 C 179.660156 192.214844 185.863281 200.488281 187.730469 204.800781 C 187.859375 205.105469 187.972656 205.386719 188.0625 205.648438 L 189.128906 208.371094 C 189.136719 208.386719 189.140625 208.398438 189.140625 208.398438 L 187.714844 206.867188 C 176.050781 195.582031 149.359375 196.792969 149.359375 196.792969 L 148.671875 190.953125 C 167.222656 192.523438 177.472656 197.308594 183.007812 201.472656 " fill-opacity="1" fill-rule="nonzero"/></g></svg>