<svg width="25" height="18" viewBox="0 0 25 18" fill="none" xmlns="http://www.w3.org/2000/svg">
<path d="M20.8395 14.4675L17.5306 11.925C18.5982 10.8768 19.1775 9.58249 19.1753 8.25C19.1753 7.06331 18.7187 5.90328 17.8632 4.91658C17.0076 3.92989 15.7917 3.16085 14.369 2.70673C12.9463 2.2526 11.3808 2.13378 9.87054 2.36529C8.36023 2.5968 6.97293 3.16825 5.88406 4.00736C4.79519 4.84648 4.05366 5.91557 3.75324 7.07946C3.45283 8.24335 3.60701 9.44975 4.1963 10.5461C4.78559 11.6425 5.78352 12.5795 7.0639 13.2388C8.34427 13.8981 9.84959 14.25 11.3895 14.25C13.1186 14.2517 14.7982 13.8052 16.1583 12.9825L19.4576 15.5325C19.548 15.6028 19.6557 15.6586 19.7743 15.6967C19.8929 15.7347 20.0201 15.7544 20.1485 15.7544C20.277 15.7544 20.4042 15.7347 20.5228 15.6967C20.6414 15.6586 20.7491 15.6028 20.8395 15.5325C20.9308 15.4628 21.0032 15.3798 21.0526 15.2884C21.102 15.197 21.1274 15.099 21.1274 15C21.1274 14.901 21.102 14.803 21.0526 14.7116C21.0032 14.6202 20.9308 14.5372 20.8395 14.4675ZM5.5501 8.25C5.5501 7.35999 5.89257 6.48996 6.53421 5.74994C7.17585 5.00992 8.08784 4.43314 9.15485 4.09254C10.2219 3.75195 11.396 3.66284 12.5287 3.83647C13.6614 4.0101 14.7019 4.43869 15.5185 5.06802C16.3352 5.69736 16.8913 6.49918 17.1167 7.3721C17.342 8.24501 17.2263 9.14981 16.7844 9.97208C16.3424 10.7943 15.5939 11.4971 14.6337 11.9916C13.6734 12.4861 12.5444 12.75 11.3895 12.75C9.84078 12.75 8.35551 12.2759 7.26041 11.432C6.16532 10.5881 5.5501 9.44348 5.5501 8.25Z" fill="#231F20"/>
</svg>
